<svg xmlns="http://www.w3.org/2000/svg" width="24" height="25" viewBox="0 0 24 25" fill="none">
  <path d="M19.5 3.02759H17.25V2.27759C17.25 2.07868 17.171 1.88791 17.0303 1.74726C16.8897 1.60661 16.6989 1.52759 16.5 1.52759C16.3011 1.52759 16.1103 1.60661 15.9697 1.74726C15.829 1.88791 15.75 2.07868 15.75 2.27759V3.02759H8.25V2.27759C8.25 2.07868 8.17098 1.88791 8.03033 1.74726C7.88968 1.60661 7.69891 1.52759 7.5 1.52759C7.30109 1.52759 7.11032 1.60661 6.96967 1.74726C6.82902 1.88791 6.75 2.07868 6.75 2.27759V3.02759H4.5C4.10218 3.02759 3.72064 3.18562 3.43934 3.46693C3.15804 3.74823 3 4.12976 3 4.52759V19.5276C3 19.9254 3.15804 20.3069 3.43934 20.5882C3.72064 20.8696 4.10218 21.0276 4.5 21.0276H19.5C19.8978 21.0276 20.2794 20.8696 20.5607 20.5882C20.842 20.3069 21 19.9254 21 19.5276V4.52759C21 4.12976 20.842 3.74823 20.5607 3.46693C20.2794 3.18562 19.8978 3.02759 19.5 3.02759ZM6.75 4.52759V5.27759C6.75 5.4765 6.82902 5.66727 6.96967 5.80792C7.11032 5.94857 7.30109 6.02759 7.5 6.02759C7.69891 6.02759 7.88968 5.94857 8.03033 5.80792C8.17098 5.66727 8.25 5.4765 8.25 5.27759V4.52759H15.75V5.27759C15.75 5.4765 15.829 5.66727 15.9697 5.80792C16.1103 5.94857 16.3011 6.02759 16.5 6.02759C16.6989 6.02759 16.8897 5.94857 17.0303 5.80792C17.171 5.66727 17.25 5.4765 17.25 5.27759V4.52759H19.5V7.52759H4.5V4.52759H6.75ZM19.5 19.5276H4.5V9.02759H19.5V19.5276ZM13.125 12.4026C13.125 12.6251 13.059 12.8426 12.9354 13.0276C12.8118 13.2126 12.6361 13.3568 12.4305 13.442C12.225 13.5271 11.9988 13.5494 11.7805 13.506C11.5623 13.4626 11.3618 13.3554 11.2045 13.1981C11.0472 13.0407 10.94 12.8403 10.8966 12.6221C10.8532 12.4038 10.8755 12.1776 10.9606 11.9721C11.0458 11.7665 11.19 11.5908 11.375 11.4672C11.56 11.3436 11.7775 11.2776 12 11.2776C12.2984 11.2776 12.5845 11.3961 12.7955 11.6071C13.0065 11.8181 13.125 12.1042 13.125 12.4026ZM17.25 12.4026C17.25 12.6251 17.184 12.8426 17.0604 13.0276C16.9368 13.2126 16.7611 13.3568 16.5555 13.442C16.35 13.5271 16.1238 13.5494 15.9055 13.506C15.6873 13.4626 15.4868 13.3554 15.3295 13.1981C15.1722 13.0407 15.065 12.8403 15.0216 12.6221C14.9782 12.4038 15.0005 12.1776 15.0856 11.9721C15.1708 11.7665 15.315 11.5908 15.5 11.4672C15.685 11.3436 15.9025 11.2776 16.125 11.2776C16.4234 11.2776 16.7095 11.3961 16.9205 11.6071C17.1315 11.8181 17.25 12.1042 17.25 12.4026ZM9 16.1526C9 16.3751 8.93402 16.5926 8.8104 16.7776C8.68679 16.9626 8.51109 17.1068 8.30552 17.192C8.09995 17.2771 7.87375 17.2994 7.65552 17.256C7.43729 17.2126 7.23684 17.1054 7.0795 16.9481C6.92217 16.7907 6.81502 16.5903 6.77162 16.3721C6.72821 16.1538 6.75049 15.9276 6.83564 15.7221C6.92078 15.5165 7.06498 15.3408 7.24998 15.2172C7.43499 15.0936 7.6525 15.0276 7.875 15.0276C8.17337 15.0276 8.45952 15.1461 8.6705 15.3571C8.88147 15.5681 9 15.8542 9 16.1526ZM13.125 16.1526C13.125 16.3751 13.059 16.5926 12.9354 16.7776C12.8118 16.9626 12.6361 17.1068 12.4305 17.192C12.225 17.2771 11.9988 17.2994 11.7805 17.256C11.5623 17.2126 11.3618 17.1054 11.2045 16.9481C11.0472 16.7907 10.94 16.5903 10.8966 16.3721C10.8532 16.1538 10.8755 15.9276 10.9606 15.7221C11.0458 15.5165 11.19 15.3408 11.375 15.2172C11.56 15.0936 11.7775 15.0276 12 15.0276C12.2984 15.0276 12.5845 15.1461 12.7955 15.3571C13.0065 15.5681 13.125 15.8542 13.125 16.1526ZM17.25 16.1526C17.25 16.3751 17.184 16.5926 17.0604 16.7776C16.9368 16.9626 16.7611 17.1068 16.5555 17.192C16.35 17.2771 16.1238 17.2994 15.9055 17.256C15.6873 17.2126 15.4868 17.1054 15.3295 16.9481C15.1722 16.7907 15.065 16.5903 15.0216 16.3721C14.9782 16.1538 15.0005 15.9276 15.0856 15.7221C15.1708 15.5165 15.315 15.3408 15.5 15.2172C15.685 15.0936 15.9025 15.0276 16.125 15.0276C16.4234 15.0276 16.7095 15.1461 16.9205 15.3571C17.1315 15.5681 17.25 15.8542 17.25 16.1526Z" fill="#6D6E75"/>
</svg>