<svg xmlns="http://www.w3.org/2000/svg" width="24" height="25" viewBox="0 0 24 25" fill="none">
  <path d="M9.75 3.77759H5.25C4.85218 3.77759 4.47064 3.93562 4.18934 4.21693C3.90804 4.49823 3.75 4.87976 3.75 5.27759V9.77759C3.75 10.1754 3.90804 10.5569 4.18934 10.8382C4.47064 11.1196 4.85218 11.2776 5.25 11.2776H9.75C10.1478 11.2776 10.5294 11.1196 10.8107 10.8382C11.092 10.5569 11.25 10.1754 11.25 9.77759V5.27759C11.25 4.87976 11.092 4.49823 10.8107 4.21693C10.5294 3.93562 10.1478 3.77759 9.75 3.77759ZM9.75 9.77759H5.25V5.27759H9.75V9.77759ZM18.75 3.77759H14.25C13.8522 3.77759 13.4706 3.93562 13.1893 4.21693C12.908 4.49823 12.75 4.87976 12.75 5.27759V9.77759C12.75 10.1754 12.908 10.5569 13.1893 10.8382C13.4706 11.1196 13.8522 11.2776 14.25 11.2776H18.75C19.1478 11.2776 19.5294 11.1196 19.8107 10.8382C20.092 10.5569 20.25 10.1754 20.25 9.77759V5.27759C20.25 4.87976 20.092 4.49823 19.8107 4.21693C19.5294 3.93562 19.1478 3.77759 18.75 3.77759ZM18.75 9.77759H14.25V5.27759H18.75V9.77759ZM9.75 12.7776H5.25C4.85218 12.7776 4.47064 12.9356 4.18934 13.2169C3.90804 13.4982 3.75 13.8798 3.75 14.2776V18.7776C3.75 19.1754 3.90804 19.5569 4.18934 19.8382C4.47064 20.1196 4.85218 20.2776 5.25 20.2776H9.75C10.1478 20.2776 10.5294 20.1196 10.8107 19.8382C11.092 19.5569 11.25 19.1754 11.25 18.7776V14.2776C11.25 13.8798 11.092 13.4982 10.8107 13.2169C10.5294 12.9356 10.1478 12.7776 9.75 12.7776ZM9.75 18.7776H5.25V14.2776H9.75V18.7776ZM18.75 12.7776H14.25C13.8522 12.7776 13.4706 12.9356 13.1893 13.2169C12.908 13.4982 12.75 13.8798 12.75 14.2776V18.7776C12.75 19.1754 12.908 19.5569 13.1893 19.8382C13.4706 20.1196 13.8522 20.2776 14.25 20.2776H18.75C19.1478 20.2776 19.5294 20.1196 19.8107 19.8382C20.092 19.5569 20.25 19.1754 20.25 18.7776V14.2776C20.25 13.8798 20.092 13.4982 19.8107 13.2169C19.5294 12.9356 19.1478 12.7776 18.75 12.7776ZM18.75 18.7776H14.25V14.2776H18.75V18.7776Z" fill="white"/>
</svg>