<svg xmlns="http://www.w3.org/2000/svg" width="14" height="14" viewBox="0 0 14 14" fill="none">
  <path fill-rule="evenodd" clip-rule="evenodd" d="M1.75 9.40625C1.75 9.16463 1.94588 8.96875 2.1875 8.96875H7.4375C7.67912 8.96875 7.875 9.16463 7.875 9.40625C7.875 9.64787 7.67912 9.84375 7.4375 9.84375H2.1875C1.94588 9.84375 1.75 9.64787 1.75 9.40625Z" fill="#6D6E75"/>
  <path fill-rule="evenodd" clip-rule="evenodd" d="M8.75 9.40625C8.75 9.16463 8.94588 8.96875 9.1875 8.96875H11.8125C12.0541 8.96875 12.25 9.16463 12.25 9.40625C12.25 9.64787 12.0541 9.84375 11.8125 9.84375H9.1875C8.94588 9.84375 8.75 9.64787 8.75 9.40625Z" fill="#6D6E75"/>
  <path fill-rule="evenodd" clip-rule="evenodd" d="M1.75 4.59375C1.75 4.35213 1.94588 4.15625 2.1875 4.15625H3.9375C4.17912 4.15625 4.375 4.35213 4.375 4.59375C4.375 4.83537 4.17912 5.03125 3.9375 5.03125H2.1875C1.94588 5.03125 1.75 4.83537 1.75 4.59375Z" fill="#6D6E75"/>
  <path fill-rule="evenodd" clip-rule="evenodd" d="M5.25 4.59375C5.25 4.35213 5.44588 4.15625 5.6875 4.15625H11.8125C12.0541 4.15625 12.25 4.35213 12.25 4.59375C12.25 4.83537 12.0541 5.03125 11.8125 5.03125H5.6875C5.44588 5.03125 5.25 4.83537 5.25 4.59375Z" fill="#6D6E75"/>
  <path fill-rule="evenodd" clip-rule="evenodd" d="M5.6875 2.84375C5.92912 2.84375 6.125 3.03963 6.125 3.28125V5.90625C6.125 6.14787 5.92912 6.34375 5.6875 6.34375C5.44588 6.34375 5.25 6.14787 5.25 5.90625V3.28125C5.25 3.03963 5.44588 2.84375 5.6875 2.84375Z" fill="#6D6E75"/>
  <path fill-rule="evenodd" clip-rule="evenodd" d="M9.1875 7.65625C9.42912 7.65625 9.625 7.85213 9.625 8.09375V10.7188C9.625 10.9604 9.42912 11.1562 9.1875 11.1562C8.94588 11.1562 8.75 10.9604 8.75 10.7188V8.09375C8.75 7.85213 8.94588 7.65625 9.1875 7.65625Z" fill="#6D6E75"/>
</svg>