<svg xmlns="http://www.w3.org/2000/svg" width="24" height="25" viewBox="0 0 24 25" fill="none">
  <path fill-rule="evenodd" clip-rule="evenodd" d="M11.584 2.40355C11.836 2.2356 12.1642 2.2356 12.4161 2.40355L21.4161 8.40355C21.6247 8.54265 21.7501 8.77682 21.7501 9.02759V18.7776C21.7501 19.1754 21.592 19.5569 21.3107 19.8382C21.0294 20.1196 20.6479 20.2776 20.2501 20.2776H3.75006C3.35224 20.2776 2.9707 20.1196 2.6894 19.8382C2.40809 19.5569 2.25006 19.1754 2.25006 18.7776V9.02759C2.25006 8.77682 2.37538 8.54265 2.58403 8.40355L11.584 2.40355ZM3.75006 9.42898V18.7776H20.2501V9.42898L12.0001 3.92898L3.75006 9.42898Z" fill="#6D6E75"/>
  <path fill-rule="evenodd" clip-rule="evenodd" d="M10.972 13.8448C11.211 14.1831 11.1305 14.6511 10.7922 14.8901L3.66723 19.9245C3.32894 20.1635 2.86094 20.083 2.62191 19.7448C2.38288 19.4065 2.46335 18.9385 2.80164 18.6994L9.92664 13.6651C10.2649 13.426 10.7329 13.5065 10.972 13.8448Z" fill="#6D6E75"/>
  <path fill-rule="evenodd" clip-rule="evenodd" d="M13.0282 13.8448C13.2672 13.5065 13.7352 13.426 14.0735 13.6651L21.1985 18.6994C21.5368 18.9385 21.6172 19.4065 21.3782 19.7448C21.1392 20.083 20.6712 20.1635 20.3329 19.9245L13.2079 14.8901C12.8696 14.6511 12.7891 14.1831 13.0282 13.8448Z" fill="#6D6E75"/>
  <path fill-rule="evenodd" clip-rule="evenodd" d="M2.3895 8.59203C2.63005 8.25482 3.09841 8.17647 3.43562 8.41702L10.5995 13.5276H13.4006L20.5645 8.41702C20.9017 8.17647 21.3701 8.25482 21.6106 8.59203C21.8512 8.92923 21.7728 9.3976 21.4356 9.63815L14.0762 14.8882C13.9491 14.9788 13.7968 15.0276 13.6407 15.0276H10.3594C10.2033 15.0276 10.051 14.9788 9.92387 14.8882L2.5645 9.63815C2.22729 9.3976 2.14894 8.92923 2.3895 8.59203Z" fill="#6D6E75"/>
</svg>