<svg xmlns="http://www.w3.org/2000/svg" width="24" height="25" viewBox="0 0 24 25" fill="none">
  <path d="M20.7512 9.78791C20.555 9.82074 20.3799 9.93015 20.2644 10.0921C20.1489 10.254 20.1025 10.4552 20.1353 10.6513C20.2114 11.1061 20.2497 11.5665 20.2497 12.0276C20.2514 14.0472 19.5092 15.9966 18.1647 17.5035C17.3282 16.2914 16.152 15.3537 14.784 14.8082C15.5189 14.2295 16.0551 13.4361 16.3181 12.5384C16.5811 11.6408 16.5579 10.6835 16.2516 9.79967C15.9453 8.91585 15.3713 8.14943 14.6092 7.607C13.8472 7.06456 12.935 6.77308 11.9997 6.77308C11.0643 6.77308 10.1521 7.06456 9.39009 7.607C8.62805 8.14943 8.05398 8.91585 7.74771 9.79967C7.44144 10.6835 7.4182 11.6408 7.68123 12.5384C7.94425 13.4361 8.48046 14.2295 9.21528 14.8082C7.8473 15.3537 6.67113 16.2914 5.83466 17.5035C4.77971 16.3148 4.0906 14.8465 3.8502 13.2754C3.6098 11.7044 3.82834 10.0973 4.47954 8.64741C5.13074 7.19756 6.18687 5.96667 7.52096 5.10276C8.85504 4.23885 10.4103 3.77868 11.9997 3.7776C12.4608 3.77752 12.9211 3.81578 13.3759 3.89197C13.5712 3.92279 13.7708 3.87524 13.9312 3.75968C14.0916 3.64412 14.1999 3.46989 14.2325 3.27489C14.2651 3.0799 14.2195 2.8799 14.1054 2.71842C13.9913 2.55694 13.8181 2.44703 13.6234 2.4126C11.5866 2.06996 9.49367 2.38347 7.64669 3.30789C5.79972 4.2323 4.29431 5.71977 3.34783 7.55553C2.40135 9.3913 2.06277 11.4804 2.38098 13.5211C2.69919 15.5618 3.65772 17.4486 5.11817 18.9091C6.57863 20.3695 8.46543 21.3281 10.5062 21.6463C12.5469 21.9645 14.636 21.6259 16.4717 20.6794C18.3075 19.7329 19.795 18.2275 20.7194 16.3806C21.6438 14.5336 21.9573 12.4406 21.6147 10.4038C21.5818 10.2077 21.4724 10.0326 21.3105 9.91707C21.1486 9.80156 20.9474 9.7551 20.7512 9.78791ZM8.99966 11.2776C8.99966 10.6843 9.17561 10.1042 9.50525 9.61089C9.83489 9.11754 10.3034 8.73302 10.8516 8.50596C11.3998 8.2789 12.003 8.21949 12.5849 8.33524C13.1669 8.451 13.7014 8.73672 14.121 9.15628C14.5405 9.57584 14.8263 10.1104 14.942 10.6923C15.0578 11.2743 14.9984 11.8775 14.7713 12.4256C14.5442 12.9738 14.1597 13.4424 13.6664 13.772C13.173 14.1017 12.593 14.2776 11.9997 14.2776C11.204 14.2776 10.4409 13.9615 9.87834 13.3989C9.31573 12.8363 8.99966 12.0732 8.99966 11.2776ZM6.94466 18.5432C7.48722 17.6947 8.23466 16.9964 9.11809 16.5127C10.0015 16.0289 10.9925 15.7754 11.9997 15.7754C13.0068 15.7754 13.9978 16.0289 14.8812 16.5127C15.7647 16.9964 16.5121 17.6947 17.0547 18.5432C15.6093 19.6673 13.8306 20.2775 11.9997 20.2775C10.1687 20.2775 8.38997 19.6673 6.94466 18.5432ZM22.2803 4.30822L19.2803 7.30822C19.2106 7.37796 19.1279 7.43328 19.0369 7.47102C18.9458 7.50876 18.8482 7.52819 18.7497 7.52819C18.6511 7.52819 18.5535 7.50876 18.4625 7.47102C18.3714 7.43328 18.2887 7.37796 18.219 7.30822L16.719 5.80822C16.6494 5.73854 16.5941 5.65582 16.5564 5.56477C16.5187 5.47373 16.4992 5.37614 16.4992 5.2776C16.4992 5.17905 16.5187 5.08147 16.5564 4.99043C16.5941 4.89938 16.6494 4.81666 16.719 4.74697C16.8598 4.60624 17.0506 4.52718 17.2497 4.52718C17.3482 4.52718 17.4458 4.54659 17.5368 4.5843C17.6279 4.62202 17.7106 4.67729 17.7803 4.74697L18.7497 5.71729L21.219 3.24697C21.2887 3.17729 21.3714 3.12202 21.4625 3.0843C21.5535 3.04659 21.6511 3.02718 21.7497 3.02718C21.8482 3.02718 21.9458 3.04659 22.0368 3.0843C22.1279 3.12202 22.2106 3.17729 22.2803 3.24697C22.35 3.31666 22.4052 3.39938 22.443 3.49043C22.4807 3.58147 22.5001 3.67905 22.5001 3.7776C22.5001 3.87614 22.4807 3.97373 22.443 4.06477C22.4052 4.15582 22.35 4.23854 22.2803 4.30822Z" fill="#6D6E75"/>
</svg>